<svg version="1.1" id="Layer_1" xmlns="http://www.w3.org/2000/svg" xmlns:xlink="http://www.w3.org/1999/xlink" x="0px" y="0px"
	 width="100%" viewBox="0 0 1024 1024" enable-background="new 0 0 1024 1024" xml:space="preserve">
<path fill="#000000" opacity="1.000000" stroke="none" 
	d="
M376.497864,751.685669 
	C360.536316,752.439087 349.667419,742.147705 349.607574,726.595276 
	C349.549286,711.447510 349.414154,696.296326 349.679962,681.153076 
	C349.756744,676.778198 347.318787,675.565613 344.109772,674.112549 
	C308.869049,658.156006 284.796417,631.860291 271.957092,595.402039 
	C267.220490,581.952148 265.124146,567.955933 265.103302,553.704895 
	C265.045593,514.216492 265.019653,474.727692 265.130188,435.239441 
	C265.203644,409.006531 271.601440,384.429108 285.872253,362.271271 
	C305.891846,331.187408 334.114746,311.713043 370.368256,304.233490 
	C378.669800,302.520813 387.205811,301.992310 395.702515,301.988190 
	C473.846649,301.950348 551.991150,301.827179 630.134827,302.024109 
	C696.427917,302.191162 751.781677,352.045380 759.033997,418.060455 
	C761.238342,438.125977 759.935913,458.337524 760.038940,478.483154 
	C760.164124,502.975433 760.130371,527.469055 760.051575,551.961731 
	C759.960144,580.389954 752.714172,606.719177 735.656799,629.732727 
	C710.013428,664.330383 676.119019,683.946228 632.388733,684.189819 
	C582.737854,684.466370 533.084290,684.293335 483.432068,684.201355 
	C479.272278,684.193665 475.823303,685.024170 472.339417,687.526001 
	C445.279541,706.957397 418.059570,726.165649 390.946777,745.523804 
	C386.660889,748.583801 382.191528,750.964294 376.497864,751.685669 
M699.246399,352.259766 
	C678.664429,334.551971 654.795532,326.244476 627.652100,326.304688 
	C550.824646,326.475067 473.996521,326.438629 397.168884,326.328278 
	C370.596649,326.290100 346.894775,334.252228 326.842590,351.636200 
	C303.298431,372.047516 289.868195,398.071442 289.303253,429.350616 
	C288.532898,472.000244 289.097076,514.674133 289.121704,557.337646 
	C289.123627,560.665771 288.998962,564.062012 289.578064,567.311584 
	C297.184021,609.990540 320.643066,639.726746 361.616302,655.010742 
	C371.118408,658.555237 373.132660,661.339966 373.125671,671.624695 
	C373.114349,688.290039 373.080933,704.955444 373.152374,721.620483 
	C373.160217,723.448486 372.294922,725.641724 374.380554,727.097412 
	C376.501343,726.679810 377.961090,725.249146 379.565857,724.102722 
	C406.680206,704.730774 433.848480,685.433167 460.841614,665.893738 
	C466.786102,661.590698 472.895569,659.665222 480.294830,659.699280 
	C530.956787,659.932373 581.620422,659.764893 632.283081,659.885620 
	C648.286926,659.923767 663.490967,656.572266 677.476013,649.007263 
	C716.081116,628.124573 735.509949,595.139648 736.466370,551.596252 
	C737.150513,520.446838 736.679565,489.270050 736.558228,458.106110 
	C736.516174,447.291840 736.920471,436.488403 735.943604,425.653931 
	C733.322754,396.585052 721.242554,372.366486 699.246399,352.259766 
z"/>
<path fill="#000000" opacity="1.000000" stroke="none" 
	d="
M604.329590,475.018005 
	C615.059204,470.350708 624.744568,471.560059 632.753418,479.587433 
	C640.192505,487.043732 642.257935,496.222382 638.353333,506.266357 
	C634.563293,516.015686 625.590149,521.947998 615.451111,521.694946 
	C604.414368,521.419434 595.685730,515.206055 592.243896,505.175262 
	C588.959167,495.602264 592.331055,483.936951 600.246216,477.664337 
	C601.414001,476.738892 602.737610,476.010223 604.329590,475.018005 
z"/>
<path fill="#000000" opacity="1.000000" stroke="none" 
	d="
M534.662354,486.583557 
	C540.349792,499.952881 535.092712,514.335205 522.856201,519.695251 
	C510.478516,525.117126 496.544373,520.036255 490.668243,507.958282 
	C484.959076,496.223511 489.799011,481.043091 501.099060,475.242096 
	C513.778870,468.732727 527.517029,473.257874 534.662354,486.583557 
z"/>
<path fill="#000000" opacity="1.000000" stroke="none" 
	d="
M385.209564,497.888184 
	C385.457153,479.961029 401.302704,468.242188 418.026062,473.842682 
	C428.743958,477.431976 435.899780,489.459015 433.978363,500.823425 
	C431.878876,513.241089 422.770050,521.326660 410.775482,521.419800 
	C396.212463,521.532898 387.459991,513.616333 385.209564,497.888184 
z"/>
</svg>