<svg version="1.1" id="Layer_1" xmlns="http://www.w3.org/2000/svg" xmlns:xlink="http://www.w3.org/1999/xlink" x="0px" y="0px"
	 width="100%" viewBox="0 0 1024 1024" enable-background="new 0 0 1024 1024" xml:space="preserve">
<path fill="#000000" opacity="1.000000" stroke="none" 
	d="
M577.000122,306.665344 
	C630.497437,306.669922 683.494751,306.653625 736.492065,306.687042 
	C768.594299,306.707275 794.310425,332.282227 794.337219,364.466187 
	C794.411499,453.628052 794.410522,542.790039 794.330994,631.951904 
	C794.301453,665.083435 769.175781,690.305115 736.136780,690.317078 
	C585.978027,690.371521 435.819214,690.359985 285.660431,690.293945 
	C255.576950,690.280762 229.820740,664.521667 229.643143,634.499023 
	C229.549606,618.686279 229.128250,602.887451 229.420395,587.055359 
	C229.893112,561.435303 228.625214,535.781555 229.166687,510.164764 
	C229.669937,486.357056 228.925598,462.563324 229.468079,438.756134 
	C229.983627,416.131042 229.127640,393.477325 229.084702,370.835785 
	C229.060394,358.026245 230.897934,345.525177 237.932510,334.427124 
	C249.205994,316.641602 265.467041,306.829224 286.519135,306.777893 
	C383.178986,306.542206 479.839661,306.668823 577.000122,306.665344 
M762.439880,660.948303 
	C770.362183,653.156799 775.071594,644.068359 775.052124,632.607422 
	C774.933350,562.792114 774.956482,492.976654 774.929443,423.161224 
	C774.926819,416.358459 774.917847,416.345398 767.983582,416.344177 
	C688.669006,416.330444 609.354431,416.310669 530.039856,416.313171 
	C439.061340,416.316040 348.082794,416.336670 257.104279,416.359253 
	C249.071869,416.361237 249.009659,416.394348 249.007172,424.124756 
	C248.984955,493.274506 248.979965,562.424255 248.998047,631.574036 
	C248.999039,635.395447 249.144302,639.187866 250.221893,642.950745 
	C254.717300,658.648865 270.827148,671.097961 287.903290,671.067505 
	C437.367279,670.800842 586.831970,670.911255 736.296448,670.969604 
	C746.110474,670.973389 754.529175,667.702637 762.439880,660.948303 
M249.034515,386.456177 
	C248.958130,398.611206 248.412521,396.810760 259.514130,396.816650 
	C380.801483,396.881195 502.088806,396.891205 623.376160,396.900879 
	C671.691162,396.904755 720.006226,396.875732 768.321228,396.848541 
	C774.817200,396.844879 775.013794,396.594635 774.993225,390.111725 
	C774.967407,381.948578 774.371582,373.732971 775.080444,365.632660 
	C776.744812,346.615509 758.466553,325.500763 736.273010,326.062103 
	C709.966431,326.727509 683.630005,326.208557 657.306519,326.209656 
	C534.185974,326.214752 411.065399,326.205688 287.944824,326.243774 
	C265.529877,326.250732 249.169449,342.600433 249.005905,364.975922 
	C248.955994,371.806122 249.024338,378.637207 249.034515,386.456177 
z"/>
<path fill="#000000" opacity="1.000000" stroke="none" 
	d="
M418.142242,500.746399 
	C424.370911,506.087585 427.061066,512.774902 427.111023,520.404968 
	C427.237335,539.715393 427.293793,559.029785 427.041626,578.338135 
	C426.837189,593.994141 417.033844,603.258789 401.349335,603.255127 
	C375.711578,603.249146 350.073761,603.283386 324.436035,603.247253 
	C307.404205,603.223267 297.728729,593.569031 297.721771,576.665955 
	C297.714142,558.020508 297.704773,539.374878 297.764557,520.729614 
	C297.815460,504.851013 307.004425,495.741760 323.003143,495.718353 
	C349.140381,495.680115 375.278168,495.790619 401.414673,495.647705 
	C407.496368,495.614441 412.899353,497.114685 418.142242,500.746399 
M348.858124,572.870239 
	C348.740723,577.190674 348.820557,581.528137 348.449493,585.826660 
	C348.091492,589.974060 349.171295,592.088623 353.832062,591.804260 
	C358.972839,591.490417 364.169739,591.419250 369.300049,591.804077 
	C374.245911,592.174988 376.025513,590.681274 375.889709,585.464478 
	C375.543304,572.158630 375.764038,558.837402 375.801361,545.522400 
	C375.836090,533.146667 380.977966,528.030762 393.499573,527.903320 
	C399.490662,527.842346 405.482880,527.898865 411.474243,527.853516 
	C412.928436,527.842529 414.484009,528.038452 415.401978,526.373596 
	C419.410675,519.103577 413.541656,507.510162 405.191986,507.327515 
	C387.558167,506.941711 369.910950,507.172974 352.269226,507.136749 
	C349.556061,507.131165 348.485992,508.300568 348.551819,511.124176 
	C348.795929,521.590454 348.679382,532.066467 349.006592,542.529175 
	C349.313721,552.348145 347.880188,562.139221 348.858124,572.870239 
M409.541931,590.346375 
	C415.608765,586.970703 416.007111,581.303345 415.843018,575.266174 
	C415.765106,572.399109 414.724396,571.191956 411.834991,570.808655 
	C404.687164,569.860352 397.600403,571.051392 390.486176,571.046631 
	C388.222046,571.045166 387.240662,572.331604 387.239655,574.529724 
	C387.237549,579.171387 387.183990,583.813049 387.189575,588.454712 
	C387.191528,590.077454 387.677216,591.616699 389.596588,591.584229 
	C396.015411,591.475952 402.507965,592.775269 409.541931,590.346375 
M320.530487,527.867615 
	C325.024963,527.859741 329.519470,527.835999 334.013855,527.851196 
	C336.128815,527.858337 337.617065,527.200745 337.602753,524.770935 
	C337.574280,519.945435 337.550079,515.119751 337.499298,510.294434 
	C337.475159,508.002808 336.247711,507.094727 333.996033,507.132263 
	C329.170410,507.212708 324.322937,506.904297 319.520691,507.253632 
	C312.001892,507.800507 308.738190,513.049683 309.044464,522.992859 
	C309.296509,531.174927 315.514557,526.652527 319.048370,527.840210 
	C319.198547,527.890625 319.379211,527.850281 320.530487,527.867615 
M337.591644,574.017761 
	C337.480103,571.980225 336.335236,571.034119 334.364166,571.029785 
	C327.047302,571.013855 319.730316,570.995544 312.413635,571.028809 
	C311.239807,571.034119 310.184753,571.389038 309.517151,572.591492 
	C305.472198,579.876953 311.449310,591.110474 319.880127,591.674500 
	C324.516327,591.984680 329.191833,591.658020 333.846863,591.752869 
	C336.607849,591.809021 337.764740,590.654785 337.694031,587.890259 
	C337.583527,583.568237 337.650543,579.241638 337.591644,574.017761 
M309.093597,544.753479 
	C309.087769,547.737061 309.224731,550.729553 309.040192,553.702026 
	C308.806702,557.462952 310.170746,559.291626 314.151031,559.019104 
	C317.120880,558.815796 320.116821,559.030457 323.098969,558.963440 
	C340.461731,558.573303 337.195221,561.930847 337.691956,543.703491 
	C337.780884,540.440674 336.380127,539.294373 333.246307,539.344604 
	C326.617889,539.450928 319.984070,539.465210 313.357117,539.313110 
	C310.023438,539.236572 308.877136,540.780701 309.093597,544.753479 
M405.315308,539.348267 
	C404.151215,539.346985 402.986969,539.332031 401.823090,539.346436 
	C385.242188,539.551758 387.390686,537.149841 387.202911,554.482056 
	C387.164215,558.057556 388.729431,559.128845 392.024475,559.027649 
	C396.509735,558.889832 401.003937,559.077881 405.493103,559.024597 
	C417.372314,558.883667 415.719116,559.877136 415.752838,548.963928 
	C415.785461,538.409241 417.482452,539.569519 405.315308,539.348267 
z"/>
<path fill="#000000" opacity="1.000000" stroke="none" 
	d="
M733.791504,522.469604 
	C740.648865,549.773132 737.227051,575.379700 723.942322,599.690918 
	C722.666565,602.025635 721.287659,604.326599 719.731079,606.480225 
	C717.008362,610.247131 713.019958,611.223999 709.761597,609.130981 
	C706.415527,606.981506 705.477783,603.023804 707.991516,599.012878 
	C713.783997,589.770325 718.684265,580.180481 720.935608,569.418518 
	C726.007568,545.172424 722.521362,522.415710 709.010803,501.424316 
	C707.843384,499.610565 706.401733,497.925568 706.396484,495.594177 
	C706.388794,492.160156 708.125061,489.875305 711.267334,488.796478 
	C714.774475,487.592407 717.410889,489.051086 719.414551,491.962494 
	C725.793884,501.231812 730.624695,511.231445 733.791504,522.469604 
z"/>
<path fill="#000000" opacity="1.000000" stroke="none" 
	d="
M708.444397,544.684143 
	C709.878540,561.403503 704.945862,576.007019 696.588745,589.644653 
	C693.843201,594.125000 689.572449,595.295105 686.033936,593.006042 
	C682.408630,590.661011 681.893616,586.743713 684.821716,582.060303 
	C694.832275,566.049011 697.452820,549.069824 691.784119,530.927429 
	C690.129456,525.631714 687.300110,520.932800 684.615051,516.146240 
	C681.859131,511.233337 682.504150,507.484314 686.362061,505.374695 
	C690.258911,503.243805 693.905701,504.497803 696.746704,509.126617 
	C703.367126,519.913513 707.923828,531.404419 708.444397,544.684143 
z"/>
<path fill="#000000" opacity="1.000000" stroke="none" 
	d="
M675.439697,528.734497 
	C682.435120,543.720337 681.650574,558.105042 674.095520,572.237305 
	C673.313965,573.699280 672.435669,575.153748 671.363342,576.407288 
	C668.769958,579.439087 665.470032,580.424683 662.030151,578.191345 
	C658.607910,575.969482 657.927185,572.536316 659.873779,568.985107 
	C663.022095,563.241455 665.756653,557.483521 665.855591,550.693420 
	C665.955872,543.817139 664.329407,537.580688 660.833435,531.657471 
	C657.877930,526.649902 658.760254,522.561462 662.731140,520.468018 
	C666.604187,518.426147 670.198669,519.810852 673.060486,524.482788 
	C673.842712,525.759827 674.544495,527.086121 675.439697,528.734497 
z"/>
</svg>