<svg version="1.1" id="Layer_1" xmlns="http://www.w3.org/2000/svg" xmlns:xlink="http://www.w3.org/1999/xlink" x="0px" y="0px"
	 width="100%" viewBox="0 0 1024 1024" enable-background="new 0 0 1024 1024" xml:space="preserve">
<path fill="#000000" opacity="1.000000" stroke="none" 
	d="
M744.898682,637.763489 
	C722.400208,694.419373 681.296204,727.296631 620.940979,732.617554 
	C574.732910,736.691284 535.376343,719.625732 503.875946,685.310974 
	C501.501556,682.724426 499.302338,681.787537 495.735626,681.998657 
	C450.073090,684.701538 404.877136,681.991882 360.695007,669.188721 
	C343.351807,664.162903 326.563263,657.739624 312.016205,646.607056 
	C299.062744,636.694153 291.956055,624.202271 292.424561,607.235107 
	C292.952911,588.102905 293.156555,568.928345 292.023895,549.780273 
	C291.577576,542.234924 292.970428,534.848938 294.938477,527.585144 
	C295.559479,525.293213 295.907959,523.058838 295.182526,520.713989 
	C291.928619,510.196594 292.131348,499.414307 292.373047,488.550842 
	C292.669128,475.240387 293.009094,461.910400 292.085144,448.598450 
	C291.479736,439.876221 292.311768,431.290314 294.893829,422.920227 
	C295.812408,419.942444 295.829834,417.072601 294.884003,414.098999 
	C292.639038,407.040863 291.783295,399.745087 292.171967,392.393280 
	C292.990265,376.914612 292.190033,361.434784 292.503235,345.958008 
	C292.751923,333.668243 298.649536,324.420013 307.883362,316.968353 
	C322.453400,305.210358 339.605103,298.813110 357.302246,293.764893 
	C386.590851,285.410217 416.581329,281.896301 446.964294,280.543091 
	C473.347076,279.368042 499.582031,280.421021 525.709045,283.777863 
	C552.880249,287.268921 579.581726,292.919434 604.549438,304.751556 
	C615.151917,309.776062 625.000793,315.999207 632.345093,325.473206 
	C636.977417,331.448883 639.475769,338.107117 639.417847,345.802399 
	C639.278625,364.298462 639.355591,382.796143 639.341370,401.293152 
	C639.340637,402.292755 639.589417,403.407166 639.240906,404.274902 
	C633.420654,418.767944 641.334290,433.108887 639.664551,447.541840 
	C639.327820,450.452606 640.811279,451.371368 643.559204,452.064453 
	C702.756226,466.995239 743.817017,512.765442 752.024048,572.952026 
	C755.028015,594.981506 752.291138,616.450562 744.898682,637.763489 
M629.729370,464.866913 
	C616.458801,462.779480 603.211548,463.017975 589.958313,465.115173 
	C517.760803,476.539917 471.302460,546.047363 484.175232,614.224060 
	C494.789246,670.437805 545.961609,715.337402 603.376343,717.682190 
	C640.609375,719.202759 673.271423,707.572754 699.526184,681.245544 
	C736.643127,644.026184 747.850342,599.057495 730.919800,549.436218 
	C714.752380,502.051331 679.847595,474.385712 629.729370,464.866913 
M562.230164,386.651245 
	C572.750732,384.019257 583.032898,380.642975 592.944153,376.252716 
	C603.490784,371.581024 613.871582,366.534637 620.954041,356.865448 
	C626.434998,349.382599 626.253601,341.633575 620.583435,334.314056 
	C617.909607,330.862427 614.643738,328.017731 611.036804,325.572205 
	C602.567810,319.830322 593.356018,315.617981 583.710815,312.282532 
	C551.786865,301.242706 518.656494,296.999451 485.158051,295.494812 
	C456.000092,294.185150 426.907318,295.766205 398.038391,300.347260 
	C375.615967,303.905304 353.546967,308.811981 332.935791,318.763672 
	C325.250549,322.474335 317.971069,326.881439 312.315033,333.440063 
	C305.424652,341.430054 305.241821,349.607880 311.835266,357.851807 
	C313.792664,360.299164 316.130157,362.525238 318.596619,364.467804 
	C327.322662,371.340363 337.248169,376.016846 347.624542,379.805756 
	C380.999725,391.992706 415.734070,396.509216 450.983765,397.649078 
	C488.240234,398.853851 525.161377,396.027679 562.230164,386.651245 
M527.785583,449.245453 
	C534.505676,448.058685 541.269958,447.078003 547.937500,445.646576 
	C568.026184,441.333893 587.781372,435.977539 605.560669,425.177917 
	C613.951050,420.081299 622.205872,414.220001 624.254150,404.068939 
	C626.137085,394.737244 624.853333,385.042542 624.823181,374.607330 
	C617.848145,380.363892 611.142639,384.348969 604.033142,387.624573 
	C601.190002,388.934540 600.217651,390.944214 600.278564,393.953064 
	C600.399963,399.949677 600.406250,405.953735 600.250366,411.949249 
	C600.129517,416.597076 597.369080,419.358826 593.557312,418.856750 
	C589.373840,418.305756 588.228333,415.210876 588.141418,411.628510 
	C588.009033,406.173126 588.106689,400.712097 588.106689,394.694489 
	C580.161011,396.993042 572.763611,399.412109 565.217346,401.203827 
	C561.155640,402.168182 559.799805,404.034851 560.003418,408.097107 
	C560.278076,413.577362 560.190857,419.101135 559.832947,424.578400 
	C559.608521,428.012848 557.671814,430.797272 553.848938,430.726013 
	C549.821899,430.650970 548.070129,427.871613 547.866211,424.074677 
	C547.759094,422.079956 547.898010,420.071777 547.785095,418.077637 
	C547.563538,414.162415 548.376343,410.171478 547.053772,405.796478 
	C538.033081,407.203064 529.184265,408.609192 520.325256,409.948059 
	C517.700195,410.344818 517.304138,412.049347 517.319885,414.270142 
	C517.360107,419.935608 517.489014,425.610260 517.229858,431.265106 
	C516.996338,436.358521 512.663696,439.070068 508.626831,436.939270 
	C505.939056,435.520569 505.142670,432.995697 505.086060,430.215210 
	C504.984375,425.218170 505.022919,420.218414 504.980835,415.219971 
	C504.964050,413.228302 504.646759,411.580475 501.961853,411.733948 
	C493.316864,412.228210 484.667755,412.659729 476.016632,413.030701 
	C473.256439,413.149048 472.228851,414.480560 472.270233,417.143555 
	C472.350464,422.308289 472.335114,427.476044 472.262238,432.641174 
	C472.194733,437.427338 469.911224,440.222900 466.223663,440.240326 
	C462.608765,440.257446 460.186066,437.388519 460.068848,432.627197 
	C459.945801,427.630615 459.945953,422.627594 460.040802,417.630249 
	C460.099884,414.516785 458.864258,413.154205 455.655609,413.019775 
	C447.674438,412.685486 439.698029,412.174683 431.732239,411.569733 
	C428.592712,411.331268 428.095490,412.995789 428.110962,415.504700 
	C428.142792,420.670197 428.236908,425.842834 428.013519,430.999878 
	C427.847778,434.826569 425.777496,437.309906 421.704681,437.278198 
	C417.760406,437.247498 416.165833,434.589050 415.888641,431.086334 
	C415.665771,428.269775 415.801727,425.424133 415.793121,422.591370 
	C415.756195,410.456451 415.786285,410.247314 403.708466,408.624664 
	C397.704102,407.817993 391.759094,406.117188 385.510651,406.246307 
	C385.352386,407.325073 385.188538,407.965729 385.174957,408.609558 
	C385.062195,413.939056 385.198181,419.285553 384.805237,424.593292 
	C384.548676,428.058990 382.568298,430.670746 378.698242,430.574036 
	C374.836243,430.477509 373.190155,427.844543 372.895386,424.306458 
	C372.716003,422.153564 372.872711,419.974945 372.787201,417.811462 
	C372.603485,413.164154 374.392120,407.798828 372.071777,404.051636 
	C369.504517,399.905762 363.368134,400.853394 358.868103,399.354095 
	C354.389740,397.861969 350.009888,395.720215 344.914429,395.510529 
	C343.795135,400.462097 344.414642,405.120850 344.312714,409.729523 
	C344.173492,416.024506 342.437958,418.803467 338.303192,418.908295 
	C334.116699,419.014435 332.020844,415.880890 331.996948,409.457886 
	C331.977112,404.125183 331.970306,398.792389 331.955261,393.459656 
	C331.950012,391.593506 331.946167,389.641815 329.952423,388.700836 
	C322.143219,385.015106 314.837128,380.473999 306.985474,374.647980 
	C306.985474,382.340118 307.388550,388.976013 306.892181,395.543945 
	C306.123535,405.715271 310.415100,413.221893 317.976410,419.355713 
	C328.635498,428.002441 341.030853,433.295502 353.867004,437.608734 
	C388.671844,449.303802 424.776764,452.590210 461.167755,453.618103 
	C483.189819,454.240112 505.079437,452.056793 527.785583,449.245453 
M466.500092,667.848572 
	C473.995972,667.848572 481.491852,667.848572 490.072693,667.848572 
	C488.398346,664.770996 487.625397,663.323730 486.828461,661.889709 
	C481.238434,651.830688 475.965637,641.593262 473.062012,630.408508 
	C472.006531,626.342651 470.149231,625.191895 466.146637,625.234192 
	C442.293732,625.486023 418.611603,623.292297 395.143616,619.148987 
	C370.127716,614.732361 345.805481,608.032959 323.300903,595.774719 
	C317.789825,592.772888 313.053406,588.641541 306.973480,584.591980 
	C306.973480,592.454773 307.481964,599.438354 306.863617,606.320557 
	C305.712463,619.132690 311.727264,627.935486 321.425781,635.085144 
	C331.596466,642.582947 342.986816,647.622803 354.861877,651.631592 
	C390.750824,663.747009 427.853241,667.679260 466.500092,667.848572 
M532.996582,463.653992 
	C523.586304,464.800415 514.205383,466.379517 504.760773,467.018707 
	C463.245972,469.828339 421.888672,468.738190 381.006714,460.233948 
	C355.947632,455.021210 331.566162,447.827484 310.413330,432.526550 
	C309.947754,432.189728 309.213379,432.224457 308.266724,432.009094 
	C305.980347,444.476105 305.639282,456.022888 316.106323,465.310944 
	C323.420410,471.801178 331.586884,476.813354 340.431976,480.821289 
	C363.863831,491.438843 388.669586,496.779327 414.029053,500.064423 
	C440.843933,503.538055 467.719116,504.668549 494.708221,502.676605 
	C497.303284,502.485107 498.917694,501.142029 500.501648,499.290466 
	C506.357574,492.445190 512.698730,486.089905 519.705994,480.393738 
	C528.572510,473.186157 538.162720,467.101135 548.125183,461.465790 
	C543.370300,462.137543 538.615479,462.809296 532.996582,463.653992 
M406.554840,514.212158 
	C404.919006,513.919556 403.286987,513.603455 401.646759,513.337952 
	C379.400543,509.737579 357.630646,504.459930 336.818817,495.565948 
	C326.377563,491.103882 316.767273,485.325165 306.987061,477.485077 
	C306.987061,486.141541 307.377258,493.751526 306.889923,501.304901 
	C306.256653,511.120850 310.554871,518.345337 317.656616,524.299011 
	C325.640106,530.991821 334.661133,536.000488 344.346832,539.779175 
	C383.575043,555.083374 424.527588,559.999817 466.302917,560.026062 
	C469.630615,560.028137 470.956696,558.602844 471.732300,555.551270 
	C474.574402,544.369080 478.653961,533.652161 484.392700,523.598572 
	C485.187225,522.206665 486.341095,520.854187 485.758423,518.171631 
	C459.657745,518.801453 433.449310,518.104309 406.554840,514.212158 
M352.642548,592.764893 
	C361.886108,596.123901 371.347107,598.719666 380.915680,600.972717 
	C407.950470,607.338379 435.392029,609.949829 463.115997,610.126465 
	C466.780518,610.149780 468.069275,608.697693 467.941437,605.011719 
	C467.658630,596.858582 467.574677,588.688965 467.753448,580.533691 
	C467.835876,576.772827 466.882599,575.154663 462.791351,575.161133 
	C438.426941,575.199524 414.259003,572.691040 390.349426,568.201660 
	C365.226593,563.484436 340.720215,556.735596 318.531952,543.350586 
	C315.168762,541.321716 312.415253,538.295532 308.593353,536.955872 
	C303.600128,548.717346 307.093872,563.811707 316.900757,572.689026 
	C327.074585,581.898499 339.311615,587.546387 352.642548,592.764893 
M624.839478,444.187195 
	C624.839478,439.942932 624.839478,435.698700 624.839478,430.124847 
	C614.611572,438.225861 604.300354,443.341827 593.880371,448.539581 
	C603.088318,447.961761 612.177246,447.991760 621.262817,448.679626 
	C623.808899,448.872345 624.936890,447.567657 624.839478,444.187195 
z"/>
<path fill="#000000" opacity="1.000000" stroke="none" 
	d="
M622.067200,506.667786 
	C639.012512,509.420990 653.665466,516.076965 666.160278,527.291809 
	C678.477539,538.347351 686.568298,552.097229 691.598511,568.720093 
	C694.811279,565.089600 697.374817,562.119019 700.019409,559.222473 
	C703.513794,555.395264 707.262268,554.770203 710.525818,557.377747 
	C713.891235,560.066772 714.326294,564.459229 711.079163,568.481384 
	C705.223389,575.734802 699.135864,582.803589 693.055725,589.872559 
	C690.142517,593.259583 686.665527,593.671387 682.762085,591.419678 
	C674.973389,586.926819 667.076477,582.619080 659.337585,578.043091 
	C654.807556,575.364441 653.566772,570.755615 655.977051,567.006409 
	C658.286255,563.414795 662.212402,562.903381 666.980164,565.528564 
	C669.457397,566.892578 671.963623,568.204712 674.477600,569.499817 
	C674.697205,569.612915 675.072510,569.423584 675.864563,569.295837 
	C672.629517,557.508789 666.339722,547.672913 657.451843,539.656189 
	C617.730957,503.828918 556.696289,520.660339 540.723145,571.729492 
	C539.019836,577.175354 535.712341,579.392517 531.252991,578.077759 
	C527.231140,576.891968 525.285034,573.142639 526.680359,567.924255 
	C533.633789,541.919250 549.807190,523.702759 574.279358,512.919861 
	C589.375793,506.268097 605.218567,504.008362 622.067200,506.667786 
z"/>
<path fill="#000000" opacity="1.000000" stroke="none" 
	d="
M613.867920,678.235596 
	C572.378723,677.960388 545.045532,658.034119 530.002686,619.516174 
	C527.110596,622.847473 524.580322,625.863098 521.939758,628.778870 
	C518.324463,632.770874 514.293457,633.393127 511.046326,630.577087 
	C507.893585,627.842896 507.736420,623.322205 510.898346,619.415344 
	C516.554749,612.426270 522.377563,605.571899 528.040405,598.587952 
	C531.042358,594.885742 534.620239,594.227844 538.678650,596.359375 
	C546.784912,600.617004 554.878662,604.905701 562.859009,609.392456 
	C567.264465,611.869385 568.588013,616.212524 566.537415,619.944458 
	C564.506348,623.640869 560.251404,624.543579 555.624329,622.180359 
	C552.517151,620.593384 549.463074,618.902527 546.377258,617.273254 
	C546.270203,617.216736 546.076904,617.323547 545.452759,617.448730 
	C549.214478,628.572510 555.171387,638.125488 563.930176,645.872986 
	C600.588623,678.298767 658.922791,663.918091 676.391052,618.168091 
	C679.167053,610.897766 682.632874,608.365356 687.284485,610.208435 
	C691.691467,611.954529 692.946655,616.220154 690.156921,623.192932 
	C677.890991,653.850830 655.500366,672.070618 622.768860,677.307373 
	C619.983643,677.752991 617.155396,677.929382 613.867920,678.235596 
z"/>
</svg>