<svg version="1.1" id="Layer_1" xmlns="http://www.w3.org/2000/svg" xmlns:xlink="http://www.w3.org/1999/xlink" x="0px" y="0px"
	 width="100%" viewBox="0 0 1024 1024" enable-background="new 0 0 1024 1024" xml:space="preserve">
<path fill="#000000" opacity="1.000000" stroke="none" 
	d="
M507.723511,279.991394 
	C508.809174,270.267120 509.613800,260.971558 511.032288,251.770630 
	C512.560669,241.856567 522.074280,238.521286 529.712402,244.994125 
	C533.015991,247.793716 536.269714,250.672607 539.331116,253.730682 
	C541.528687,255.925842 543.508667,256.451263 546.336548,254.807465 
	C549.638977,252.887878 553.220032,251.451736 556.655579,249.755981 
	C561.814392,247.209610 566.362976,248.404648 570.482178,252.007843 
	C572.487671,253.762115 574.658997,255.436218 576.252991,257.529175 
	C579.790039,262.173492 583.714600,262.348480 588.242737,259.271942 
	C588.379578,259.178955 588.535889,259.113831 588.685669,259.040802 
	C602.800720,252.159744 603.952454,252.134262 614.938110,263.666656 
	C618.846924,267.770081 622.202820,268.937439 626.793579,265.493652 
	C627.056702,265.296295 627.377441,265.174042 627.675781,265.025665 
	C641.218262,258.291260 643.018433,258.543793 653.677185,269.327148 
	C660.054993,275.779449 658.620117,274.842346 666.235779,271.263977 
	C667.894226,270.484711 669.516479,269.628754 671.168701,268.835815 
	C678.616394,265.261444 682.057922,265.880035 688.269165,271.564240 
	C691.452759,274.477661 693.930847,279.195892 697.925110,279.906586 
	C701.939697,280.620911 705.724060,276.769592 709.650574,275.014374 
	C717.739807,271.398376 721.132629,271.933380 727.576782,278.152527 
	C736.793701,287.047516 736.789124,287.037292 748.377258,281.741425 
	C750.191223,280.912445 752.025085,280.079285 753.925903,279.496307 
	C762.773193,276.782654 769.942688,283.143433 768.753906,292.353973 
	C766.788879,307.578430 763.151672,322.458008 759.705261,337.375702 
	C758.645569,341.962433 758.220337,346.544556 758.209351,351.229523 
	C758.157471,373.402985 756.481995,395.468506 753.495850,417.432648 
	C752.893860,421.860596 752.964966,425.233307 758.835510,425.728210 
	C762.901611,426.071014 765.236938,429.344604 766.060852,433.123596 
	C766.914856,437.040680 768.669495,439.146912 772.894104,439.543701 
	C778.135498,440.035980 781.324097,443.324829 782.281860,448.484894 
	C782.883057,451.723877 784.457031,453.439026 787.847900,453.750397 
	C793.700439,454.287903 797.411926,457.472321 798.273560,463.395142 
	C798.734619,466.564758 800.435120,468.207397 803.448547,468.441895 
	C815.127441,469.350555 816.948853,480.553925 811.749695,488.576172 
	C805.455383,498.288208 797.168701,506.325073 789.659546,515.004944 
	C773.200806,534.029419 756.578674,552.913818 739.868469,571.717896 
	C737.482849,574.402405 737.102722,577.233887 737.171326,580.437317 
	C737.196655,581.613831 737.133606,582.901062 738.495056,583.388489 
	C739.939819,583.905823 741.068726,583.285828 741.919373,582.057190 
	C743.055969,580.415649 744.141785,578.729797 745.394287,577.179993 
	C747.126343,575.036743 749.487610,574.221252 752.109558,575.000977 
	C754.562317,575.730347 755.258179,577.924988 755.188293,580.183655 
	C755.101990,582.973328 756.278076,584.130798 758.929016,585.091125 
	C771.242310,589.551331 776.741943,599.320679 774.424011,612.150146 
	C773.536560,617.062012 772.452637,621.939514 771.403992,626.821045 
	C770.477478,631.133972 769.017883,635.567200 765.641785,638.251953 
	C758.820190,643.676575 757.809875,651.272888 756.260315,658.914612 
	C749.611694,691.703186 742.935730,724.486816 736.075684,757.231567 
	C732.295288,775.276306 713.634338,789.166321 693.296143,789.196289 
	C645.964600,789.266174 598.632874,789.207092 551.301208,789.207947 
	C478.637054,789.209229 405.972260,789.045959 333.309174,789.327515 
	C311.822968,789.410767 291.540924,776.152039 287.227844,752.010742 
	C281.110107,717.768311 273.562073,683.781921 266.699249,649.671265 
	C265.987152,646.131958 264.765198,643.194031 261.938904,640.681519 
	C258.007172,637.186218 255.536636,632.613953 254.456131,627.393799 
	C253.275131,621.688171 251.972427,616.001770 251.002289,610.259766 
	C249.306778,600.224304 254.547440,590.096680 264.092834,586.258728 
	C268.294922,584.569214 269.126129,582.274841 268.707642,578.349243 
	C265.474396,548.017395 260.187408,518.056946 253.122528,488.380615 
	C244.948700,454.045959 232.204178,421.361511 218.324646,389.030090 
	C215.522430,382.502502 214.093872,375.368225 212.232407,368.459656 
	C210.980759,363.814331 211.718170,359.409882 215.474945,356.090607 
	C219.390656,352.630829 224.211716,352.072113 228.526459,354.590179 
	C239.180298,360.807678 247.635361,360.134155 254.721130,348.972137 
	C257.799103,344.123474 263.832092,342.961395 268.587738,346.104553 
	C279.167145,353.096893 286.811035,350.928223 293.670197,340.762756 
	C297.041779,335.765961 302.449585,335.190948 308.017151,337.647247 
	C311.369537,339.126251 314.875275,340.300934 318.101135,342.010468 
	C321.029755,343.562469 322.996063,342.888275 325.031494,340.555878 
	C327.658661,337.545441 330.487732,334.708099 333.282776,331.847931 
	C337.324982,327.711487 341.946136,326.607849 347.386169,329.019501 
	C351.925507,331.031769 356.535950,334.914276 361.199097,334.044617 
	C365.892395,333.169312 368.528931,327.640900 372.073639,324.163422 
	C377.348022,318.989075 381.006256,318.251831 387.835114,321.106110 
	C392.123291,322.898468 396.594604,326.180908 400.744568,325.844482 
	C405.068939,325.493866 407.363159,319.811035 410.665619,316.583893 
	C416.633972,310.751648 420.356018,309.186127 427.568634,313.303558 
	C437.177521,318.788910 444.489014,317.874207 450.782227,308.740997 
	C451.705750,307.400757 453.114990,306.362823 454.402405,305.311005 
	C462.136719,298.992035 471.467499,301.537231 474.056152,311.099915 
	C476.924469,321.695587 479.263916,332.496979 479.219025,343.545990 
	C479.148590,360.884247 480.347015,378.155365 481.352020,395.440643 
	C481.437714,396.914703 481.808228,398.372223 482.807495,399.931763 
	C484.839630,390.160034 486.598328,380.321625 488.961151,370.630524 
	C493.809326,350.745667 498.748230,330.876373 504.116974,311.127686 
	C506.866425,301.013947 506.781067,290.711029 507.723511,279.991394 
M442.500000,774.939331 
	C524.136841,774.934570 605.773743,774.930969 687.410583,774.920715 
	C690.408691,774.920288 693.417542,775.005554 696.403076,774.793274 
	C709.813538,773.839966 720.175659,764.713623 722.894104,751.572021 
	C729.093384,721.603333 735.333191,691.642883 741.430786,661.653503 
	C742.172729,658.004456 743.632568,654.332214 742.746948,650.581970 
	C740.190491,649.176086 737.660522,649.413513 735.178772,649.411987 
	C718.851379,649.402039 702.519775,649.642822 686.197998,649.341980 
	C673.343689,649.105103 661.104736,651.488220 649.018677,655.684387 
	C591.579651,675.627319 532.601624,683.210571 472.009552,677.076233 
	C439.250458,673.759705 407.382202,666.372192 376.303589,655.525696 
	C367.316345,652.389160 358.162048,649.638062 348.596710,649.522095 
	C327.773895,649.269714 306.945984,649.463684 286.120758,649.359680 
	C282.052917,649.339294 280.977081,650.610779 281.847015,654.775208 
	C288.136780,684.884949 294.137360,715.054993 300.381927,745.174316 
	C301.520813,750.667480 301.914215,756.450928 305.185791,761.336670 
	C311.589325,770.899536 320.796539,774.920898 332.039917,774.922302 
	C368.526611,774.926941 405.013306,774.934021 442.500000,774.939331 
M296.522797,583.780701 
	C305.687469,583.784912 314.857300,583.986511 324.015625,583.747742 
	C338.352875,583.374023 352.177032,585.672546 365.676361,590.486084 
	C375.555298,594.008667 385.557159,597.191956 395.548340,600.388733 
	C397.123962,600.892761 398.891815,602.099365 400.639618,600.311218 
	C403.688873,597.191528 404.437164,592.514954 401.758606,589.096313 
	C397.496613,583.656738 396.945282,578.014465 399.634766,571.773743 
	C400.427277,569.934692 402.046509,568.032715 400.050568,565.795776 
	C398.080841,563.588074 395.893921,564.271179 393.612518,564.856140 
	C392.484406,565.145386 391.338318,565.367981 390.195221,565.594727 
	C328.009003,577.928284 287.898376,522.924683 293.528503,478.063934 
	C299.221069,432.705200 340.257660,400.538452 385.685089,406.602631 
	C433.303192,412.959229 465.432953,459.983673 454.619659,504.793640 
	C453.639526,508.855286 451.890320,512.862000 451.941620,517.663025 
	C464.487366,516.423035 476.624084,515.223450 489.658173,513.935181 
	C475.414032,464.667023 467.162384,415.286163 465.374603,365.264465 
	C463.559814,364.290710 462.453644,364.881470 461.349060,365.118835 
	C390.892456,380.260864 320.436127,395.403870 249.985107,410.571899 
	C243.888947,411.884430 243.582855,412.452057 245.841797,418.218292 
	C255.760925,443.538147 263.573639,469.508606 269.630524,495.998169 
	C275.342072,520.977356 279.700562,546.197510 282.471283,571.688110 
	C283.791992,583.838684 283.930695,583.823608 296.522797,583.780701 
M511.499969,665.078674 
	C524.499939,665.237549 537.501221,664.874146 550.416809,663.513184 
	C580.632874,660.329346 610.333374,654.414612 639.001709,644.241943 
	C656.018799,638.203491 673.195618,634.861084 691.330688,635.547668 
	C707.471008,636.158813 723.652405,635.715332 739.815613,635.677856 
	C750.381836,635.653442 755.787842,631.392578 758.321228,621.153992 
	C759.119690,617.927002 759.755371,614.658630 760.421631,611.400208 
	C762.293335,602.246582 759.039185,598.227112 749.534668,598.194580 
	C731.705322,598.133667 713.873413,598.343506 696.046997,598.106567 
	C684.866394,597.958008 674.246216,600.145081 663.814148,603.943176 
	C646.283813,610.325745 628.613098,616.318054 610.359985,620.315369 
	C564.777344,630.297852 518.735718,632.087830 472.292450,628.531189 
	C442.922791,626.281982 414.238770,621.026123 386.165558,612.225830 
	C373.937683,608.392639 362.213776,602.750366 349.605408,600.407288 
	C324.183441,595.682983 298.434906,598.912964 272.834900,598.404419 
	C267.664703,598.301636 264.717346,602.198425 265.138550,607.509277 
	C265.492279,611.969299 266.372955,616.401794 267.234833,620.804443 
	C269.289276,631.299316 274.559357,635.653625 285.160828,635.670898 
	C304.823303,635.702942 324.487640,635.843872 344.147644,635.622925 
	C355.992004,635.489807 367.337067,637.780457 378.397003,641.634338 
	C421.181488,656.542786 465.052948,665.221680 511.499969,665.078674 
M694.797668,453.303009 
	C704.952209,441.606293 715.102600,429.905914 725.264160,418.215363 
	C727.938782,415.138336 730.998962,412.247559 735.151062,411.932068 
	C739.141846,411.628815 740.263611,409.454681 740.563538,406.184601 
	C741.505920,395.911499 742.611084,385.655701 742.942322,375.327545 
	C743.070801,371.322845 741.647583,369.717285 737.687622,369.198944 
	C727.960693,367.925659 718.282166,366.278412 708.590210,364.743134 
	C676.072937,359.592010 643.562012,354.401367 611.041748,349.269226 
	C580.169922,344.397217 549.276978,339.656494 518.426880,334.651520 
	C514.042725,333.940308 512.322937,335.033173 511.158997,339.394104 
	C503.172363,369.318207 497.078278,399.645264 491.568481,430.092712 
	C490.133453,438.022675 487.640686,445.886963 489.508148,454.230225 
	C493.504852,472.086334 497.551941,489.924652 502.594025,507.520599 
	C503.303497,509.996460 503.499908,512.910339 507.423279,512.652527 
	C511.362122,512.393677 512.200195,509.956726 512.704712,506.682373 
	C517.007507,478.758545 521.189331,450.813385 525.829895,422.945007 
	C530.119629,397.183136 553.605103,382.215698 575.612976,385.606720 
	C601.098877,389.533630 626.585022,393.464355 652.038147,397.596191 
	C664.415100,399.605438 673.411682,406.712738 678.966370,417.769592 
	C683.774414,427.340240 683.945496,437.565735 681.895874,447.987213 
	C680.436523,455.407990 679.497864,462.931152 678.326782,470.408630 
	C678.617371,470.545502 678.908020,470.682404 679.198608,470.819275 
	C684.245667,465.159546 689.292786,459.499817 694.797668,453.303009 
M668.690186,444.323822 
	C668.924194,442.846100 669.147034,441.366486 669.394043,439.890900 
	C671.797119,425.536102 662.986145,413.342560 648.573425,411.055328 
	C624.422424,407.222656 600.272400,403.383636 576.123718,399.536072 
	C557.842407,396.623352 541.846313,408.396454 539.070190,426.806122 
	C538.350830,431.576202 537.587952,436.339905 536.816895,441.101990 
	C533.361694,462.440430 529.860107,483.771454 526.461304,505.118866 
	C525.639221,510.282104 526.495300,510.820312 531.702087,510.343018 
	C545.948364,509.037048 560.207397,507.860931 574.470337,506.748718 
	C579.802673,506.332886 585.170593,506.264435 590.084229,508.937622 
	C592.120361,510.045380 593.563599,508.932343 595.100647,507.919189 
	C600.610107,504.287506 606.631226,501.929413 613.162659,501.053680 
	C622.713257,499.773163 629.332092,507.271973 626.935181,516.580933 
	C626.522034,518.185364 625.925659,519.766602 625.218262,521.266357 
	C623.621704,524.651245 624.552307,526.928772 627.849121,528.415100 
	C628.453247,528.045349 628.965515,527.872437 629.276428,527.521179 
	C639.323914,516.172913 649.356750,504.811768 659.377441,493.439819 
	C660.855835,491.762054 661.424072,489.751129 661.772095,487.533539 
	C663.988098,473.412781 666.328918,459.311554 668.690186,444.323822 
M755.215271,445.054077 
	C754.308044,442.729370 754.812500,439.085632 751.048279,439.161102 
	C743.733154,439.307770 740.052612,435.474915 738.526306,428.800690 
	C738.349060,428.025482 738.004578,427.203583 736.976624,427.006012 
	C735.546570,427.289886 734.950623,428.596375 734.100098,429.563354 
	C726.839600,437.817352 719.624268,446.111115 712.365479,454.366547 
	C685.750366,484.635620 659.183960,514.947937 632.421875,545.086609 
	C629.229431,548.681885 627.643250,551.680725 630.985413,555.785889 
	C633.931519,559.404541 629.243408,564.516724 633.331909,567.927246 
	C633.459656,568.033813 633.577332,568.152649 633.699402,568.265991 
	C640.903625,574.953430 648.139282,581.607483 655.291931,588.349548 
	C657.297852,590.240234 659.238892,591.027771 662.018433,589.957520 
	C675.768433,584.663025 690.098633,583.016968 704.711853,583.853027 
	C709.162720,584.107666 712.168152,582.519775 715.026611,579.238586 
	C740.630310,549.847961 766.388550,520.591858 791.984131,491.194153 
	C794.492615,488.313019 797.778564,485.853729 799.209839,481.427185 
	C791.155762,481.311584 786.104736,478.054535 785.237915,469.892792 
	C784.964966,467.322479 782.713074,467.114441 780.680237,466.929901 
	C775.034668,466.417511 771.243774,463.710999 770.413879,457.869873 
	C769.893127,454.204803 767.758057,452.869293 764.350098,452.618317 
	C759.950012,452.294281 756.851929,450.111359 755.215271,445.054077 
M423.176178,473.319672 
	C435.920013,489.410522 431.404572,505.709503 423.434265,521.873413 
	C425.389893,523.575806 427.008820,524.845337 429.455383,523.520142 
	C434.371948,520.857056 438.462036,517.765381 440.274506,511.921783 
	C442.257782,505.527313 444.124054,499.140228 444.589294,492.485382 
	C447.807678,446.444977 405.847290,409.979065 360.549072,419.358002 
	C322.626465,427.209869 298.371277,464.217010 306.663605,501.573334 
	C315.042358,539.319031 352.093231,562.408386 390.062073,553.605957 
	C393.862671,552.724854 396.795715,551.104614 398.414703,547.311951 
	C399.114014,545.673767 399.796844,544.333374 398.567322,542.726624 
	C397.467743,541.289612 396.070587,541.290710 394.524780,541.711182 
	C391.417786,542.556213 388.229980,542.464722 385.083618,542.238770 
	C375.788330,541.571289 368.870514,535.990417 366.437225,527.390259 
	C364.389587,520.153198 367.192596,513.356079 375.294434,507.991791 
	C383.714264,502.416962 388.127441,494.545410 389.438293,484.909271 
	C390.531708,476.871338 394.326141,471.117279 401.870178,468.266663 
	C409.644592,465.328949 416.575134,467.421936 423.176178,473.319672 
M638.401611,276.446259 
	C634.136597,278.309387 629.730042,279.908478 625.641174,282.100159 
	C620.095581,285.072662 615.016418,284.608032 611.332520,279.733551 
	C604.295349,270.422089 596.598816,269.288727 586.938904,275.691406 
	C581.506531,279.292023 575.610168,278.179810 571.722351,273.049561 
	C564.884216,264.025909 557.760681,263.693817 548.534119,269.599457 
	C541.889893,273.852295 538.979614,272.704041 532.903687,267.350616 
	C530.387634,265.133728 528.363159,262.212952 524.807678,260.792969 
	C523.002930,269.110840 522.579651,277.066956 521.817688,284.999969 
	C520.677246,296.872314 520.492371,296.755432 532.323669,298.605072 
	C584.772339,306.804688 637.213196,315.054840 689.653259,323.309509 
	C706.581848,325.974304 723.512451,328.631561 740.412781,331.467560 
	C744.484741,332.150879 746.689819,331.097321 747.463623,326.868652 
	C748.241394,322.618530 749.773010,318.492615 750.376282,314.227661 
	C751.192139,308.460632 753.398987,302.767853 752.408936,296.423126 
	C748.601501,296.968567 745.932800,298.735931 743.092896,299.974213 
	C734.920593,303.537628 732.578613,303.179932 726.168762,297.087982 
	C716.868591,288.249054 716.869141,288.250305 704.865295,293.589539 
	C704.105286,293.927582 703.285767,294.150024 702.563171,294.551025 
	C697.395386,297.418793 692.310730,296.546356 689.063721,292.151886 
	C681.715393,282.206482 673.800049,281.439178 663.959290,288.349731 
	C659.308350,291.615784 654.545410,290.151978 650.305359,286.383636 
	C646.586243,283.078308 643.491882,279.051117 638.401611,276.446259 
M552.679749,522.339905 
	C543.077881,523.258179 533.480347,524.225342 523.873230,525.085449 
	C497.039307,527.487671 470.196228,529.789124 443.368561,532.258667 
	C436.207703,532.917908 432.705963,537.838440 433.427856,545.052551 
	C435.132050,562.083801 436.856415,579.115540 438.282593,596.171326 
	C439.533173,611.127014 439.375366,610.996582 454.253021,612.695740 
	C485.916229,616.311890 517.622742,617.559753 549.404968,614.678345 
	C562.158691,613.522095 574.890442,612.091064 587.607300,610.576538 
	C593.168030,609.914185 596.902405,605.386719 596.458435,600.348572 
	C594.502319,578.148376 592.567932,555.945862 590.490906,533.756836 
	C589.374878,521.835144 585.801880,519.191528 573.975342,520.561096 
	C567.207153,521.344788 560.394836,521.746643 552.679749,522.339905 
M298.966644,356.436981 
	C297.142670,358.379089 295.354584,360.356384 293.488037,362.256683 
	C287.833771,368.013123 284.949799,368.587799 277.462311,365.536072 
	C264.476807,360.243439 264.476837,360.243500 254.418335,370.427399 
	C248.571976,376.346680 245.689819,376.889954 237.964905,373.703156 
	C234.861816,372.422974 231.836990,370.769470 227.887863,370.549225 
	C230.306503,380.336914 233.217453,389.308228 237.313538,397.906036 
	C238.700714,400.817749 240.669815,400.993561 243.435837,400.394165 
	C270.906342,394.441193 298.395660,388.575073 325.876801,382.671082 
	C370.588593,373.065399 415.297119,363.444336 460.012360,353.854828 
	C462.134308,353.399750 464.577698,353.440521 464.711273,350.450470 
	C465.158691,340.439514 463.879120,330.655182 461.227936,321.085266 
	C458.779144,321.118622 457.607819,322.510681 456.581268,323.653748 
	C443.636536,338.067322 440.809937,334.314240 425.637970,328.094208 
	C425.484070,328.031097 425.323242,327.972534 425.187073,327.880219 
	C422.778687,326.248260 420.947662,327.015930 419.131470,329.037170 
	C416.350464,332.132141 413.401764,335.078522 410.479736,338.044128 
	C406.584015,341.997925 402.170532,343.300110 396.885101,340.823517 
	C393.270172,339.129639 389.471832,337.823608 385.876343,336.093079 
	C383.370392,334.886993 381.508820,335.251312 379.659943,337.254578 
	C376.949951,340.190918 373.993286,342.902863 371.334503,345.882446 
	C367.240417,350.470612 362.252838,352.032349 357.051331,348.783447 
	C346.897461,342.441071 339.117065,343.637787 332.297455,353.936310 
	C328.851532,359.140076 323.220612,360.320221 317.189575,357.397278 
	C314.499481,356.093506 311.491272,355.398315 308.908356,353.932129 
	C304.995087,351.710754 301.994385,352.351074 298.966644,356.436981 
M546.803345,311.914001 
	C539.585693,310.735352 532.382446,309.452972 525.140869,308.446594 
	C523.184143,308.174683 520.382019,307.076843 519.375000,309.792206 
	C517.795593,314.050873 515.892517,318.327454 516.012207,323.168427 
	C517.026184,323.411041 517.648865,323.605499 518.286377,323.706055 
	C549.981201,328.703186 581.677979,333.687866 613.372986,338.683441 
	C652.952637,344.921661 692.537109,351.129333 732.106140,357.434448 
	C744.255920,359.370453 744.609558,359.157593 743.813538,346.786560 
	C743.802795,346.620514 743.794189,346.453491 743.799438,346.287354 
	C743.878418,343.819794 742.556458,342.728699 740.223999,342.376740 
	C733.815308,341.409637 727.422363,340.339081 721.019897,339.329620 
	C688.023071,334.127319 655.026611,328.921814 622.027161,323.736206 
	C597.240417,319.841156 572.449097,315.974457 546.803345,311.914001 
M414.056000,478.360718 
	C405.732239,474.625488 400.522552,477.397736 399.189636,486.338837 
	C397.326660,498.835785 391.624481,508.900360 380.805115,515.813904 
	C379.564423,516.606750 378.346436,517.567505 377.424530,518.700073 
	C375.358734,521.237793 374.956360,524.011780 376.649078,527.018066 
	C379.091156,531.355408 383.158691,532.643738 387.629181,532.516357 
	C390.449280,532.435913 393.685883,532.414490 394.782806,528.498413 
	C396.327393,522.984009 400.711426,520.063049 405.919067,520.062378 
	C411.212524,520.061707 413.651917,517.449280 415.950165,513.497742 
	C418.250122,509.543304 419.994690,505.345581 420.424744,500.898102 
	C421.196075,492.920959 421.687378,484.801697 414.056000,478.360718 
M606.285156,590.414124 
	C606.590637,593.056396 606.980347,595.692139 607.185730,598.342163 
	C607.783264,606.050781 610.679138,607.461182 617.692627,602.947998 
	C614.716858,598.156738 613.873657,593.047241 617.508179,588.186523 
	C619.682678,585.278381 619.536072,582.902466 617.123474,580.283813 
	C612.628235,575.404663 611.807678,570.070923 615.721497,564.424072 
	C617.831726,561.379517 617.671082,558.664856 615.071350,555.964600 
	C610.332520,551.042358 610.012329,545.745483 614.058411,540.235352 
	C615.606384,538.127258 615.370056,536.285950 613.542236,534.487610 
	C608.937317,529.956726 607.968689,524.860352 611.159302,519.087524 
	C611.696899,518.114868 612.265564,517.019104 611.697693,515.807739 
	C604.252747,516.419556 599.944458,520.014954 600.425964,525.434326 
	C602.324280,546.796875 604.299561,568.152466 606.285156,590.414124 
M415.835632,569.081909 
	C415.182800,570.788330 414.767059,572.639954 413.829132,574.171875 
	C411.692932,577.661133 412.107880,580.763306 414.673523,583.750977 
	C418.900421,588.672974 419.066193,593.959167 415.927856,599.424927 
	C413.576721,603.519653 415.220367,605.513672 419.261719,606.635193 
	C427.374023,608.886353 428.244659,608.222595 427.692322,599.850891 
	C427.615875,598.691772 427.430573,597.540222 427.328796,596.382324 
	C425.773834,578.689148 424.097900,561.005127 422.736725,543.296997 
	C422.203094,536.354309 417.260406,532.513000 409.900421,534.226624 
	C410.137939,534.846558 410.256012,535.518188 410.610474,536.024231 
	C414.602509,541.723206 415.723724,547.484741 411.215424,553.485901 
	C409.690796,555.515442 410.823975,557.198730 412.051270,558.883240 
	C414.106232,561.703552 416.303436,564.486755 415.835632,569.081909 
M643.513184,596.419067 
	C645.389648,595.674744 645.732117,594.535095 644.250427,593.100342 
	C641.345032,590.286926 638.389221,587.525513 634.912231,584.228638 
	C633.908508,588.320068 632.422607,591.223022 631.157959,594.216248 
	C629.819641,597.383850 631.945801,599.769714 635.301453,598.980408 
	C637.859070,598.378723 640.336670,597.437134 643.513184,596.419067 
z"/>
<path fill="#000000" opacity="1.000000" stroke="none" 
	d="
M363.605621,693.762512 
	C365.161774,690.132324 367.614014,688.297729 371.196411,689.033508 
	C374.301025,689.671143 375.817841,692.099182 376.256500,695.138245 
	C378.339752,709.571960 380.453308,724.001770 382.425842,738.450745 
	C383.081787,743.255249 380.855316,746.507385 377.033447,746.992981 
	C373.264709,747.471741 370.403320,744.677307 369.713501,739.914246 
	C367.693695,725.968384 365.642426,712.026917 363.641296,698.078369 
	C363.455719,696.784668 363.539337,695.452332 363.605621,693.762512 
z"/>
<path fill="#000000" opacity="1.000000" stroke="none" 
	d="
M648.009888,746.982605 
	C642.738281,745.881104 641.370850,742.679932 642.055420,738.043213 
	C644.015564,724.765259 645.888184,711.474487 647.800781,698.189514 
	C647.918884,697.369141 648.052002,696.548340 648.234070,695.740356 
	C649.349365,690.790710 652.197876,688.310547 655.874512,689.066101 
	C659.819702,689.876892 661.591309,693.400940 660.810608,698.463623 
	C658.663818,712.385315 656.530640,726.309814 654.528748,740.252808 
	C653.985291,744.038025 652.247070,746.376648 648.009888,746.982605 
z"/>
<path fill="#000000" opacity="1.000000" stroke="none" 
	d="
M458.011169,727.708618 
	C457.475067,720.622559 456.975342,713.998169 456.541443,707.369446 
	C456.219025,702.443298 458.377106,699.325867 462.246063,698.974915 
	C466.108765,698.624451 468.901672,701.537109 469.301819,706.297241 
	C470.177704,716.717590 471.054779,727.137878 471.955475,737.556152 
	C472.399292,742.689697 469.985443,746.545532 466.005646,746.963013 
	C462.040253,747.379089 459.242920,744.088867 458.860260,738.596741 
	C458.617950,735.119263 458.338562,731.644409 458.011169,727.708618 
z"/>
<path fill="#000000" opacity="1.000000" stroke="none" 
	d="
M554.825928,713.082520 
	C555.160583,709.817627 555.296326,706.983398 555.820862,704.223083 
	C556.463623,700.840698 558.861877,698.923340 562.181702,699.070312 
	C565.720337,699.226868 568.411987,701.418640 568.186279,705.094482 
	C567.434998,717.330933 566.393616,729.552429 565.257935,741.760559 
	C564.932922,745.254517 562.321533,747.025024 558.971741,746.869690 
	C555.047119,746.687744 552.840942,744.053162 552.889343,740.305420 
	C552.962036,734.683594 553.585205,729.068115 553.998291,723.451782 
	C554.241333,720.148071 554.530823,716.847717 554.825928,713.082520 
z"/>
<path fill="#000000" opacity="1.000000" stroke="none" 
	d="
M757.009033,492.810791 
	C752.090149,492.193726 749.260864,489.612274 748.893127,485.086090 
	C748.567627,481.079590 750.581909,478.059204 754.366089,476.485809 
	C757.897888,475.017426 760.936462,476.178131 763.357727,478.818298 
	C768.051880,483.936615 765.100586,490.757812 757.009033,492.810791 
z"/>
<path fill="#000000" opacity="1.000000" stroke="none" 
	d="
M737.053162,468.879456 
	C734.879578,475.448151 730.478455,477.945099 725.307983,475.927246 
	C721.148743,474.304016 719.219177,469.486877 721.125610,465.084381 
	C722.678284,461.498627 725.618286,459.563049 729.458740,460.006042 
	C734.257446,460.559601 736.621460,463.779419 737.053162,468.879456 
z"/>
<path fill="#000000" opacity="1.000000" stroke="none" 
	d="
M719.208130,510.584473 
	C717.172791,506.742523 717.595093,503.378387 720.231140,500.585114 
	C722.521423,498.158203 725.505859,497.109680 728.868958,498.321198 
	C732.318481,499.563751 734.410889,502.056061 734.622498,505.721954 
	C734.835876,509.419250 733.005981,512.150879 729.607727,513.563599 
	C725.633057,515.216064 722.135132,514.431213 719.208130,510.584473 
z"/>
<path fill="#000000" opacity="1.000000" stroke="none" 
	d="
M712.271606,538.480713 
	C715.223145,534.708557 718.720703,533.736694 722.703003,535.429688 
	C726.120605,536.882568 727.563110,539.723694 727.408813,543.462585 
	C727.248901,547.335938 725.047058,549.576721 721.670837,550.800293 
	C718.565918,551.925659 715.690674,551.152832 713.409424,548.846130 
	C710.502075,545.906433 710.015686,542.492126 712.271606,538.480713 
z"/>
<path fill="#000000" opacity="1.000000" stroke="none" 
	d="
M680.813110,550.526306 
	C677.741516,554.111511 674.340698,555.203613 670.365662,553.169434 
	C667.305420,551.603455 665.573120,548.995605 665.875244,545.492126 
	C666.188293,541.861084 668.211365,539.304321 671.704346,538.155212 
	C674.796082,537.138123 677.633118,537.760254 679.933655,540.141602 
	C682.874023,543.185120 682.980347,546.588745 680.813110,550.526306 
z"/>
<path fill="#000000" opacity="1.000000" stroke="none" 
	d="
M685.189453,509.176147 
	C688.877625,506.222900 692.441650,505.921082 696.028381,508.419342 
	C698.739441,510.307770 699.727661,513.076965 699.193542,516.279785 
	C698.617615,519.733337 696.423523,521.873901 693.117126,522.813354 
	C689.702332,523.783630 686.820740,522.643494 684.698486,519.969788 
	C681.943237,516.498657 682.330994,512.913696 685.189453,509.176147 
z"/>
<path fill="#000000" opacity="1.000000" stroke="none" 
	d="
M381.310547,476.981445 
	C376.781036,496.158661 365.792175,508.838531 346.781494,513.675903 
	C340.911316,515.169617 334.855988,515.043457 329.109619,512.640259 
	C321.845398,509.602203 317.340210,504.077606 317.124359,496.258484 
	C316.924774,489.028625 320.717896,483.667328 327.550537,480.628235 
	C335.574921,477.059052 340.213745,470.633240 342.522949,462.323456 
	C345.550690,451.428101 352.550842,445.864410 362.476166,446.401428 
	C371.740936,446.902740 379.414948,454.248596 381.390289,464.191528 
	C382.219116,468.363525 382.315186,472.437866 381.310547,476.981445 
M367.067505,458.311707 
	C359.589050,454.179626 354.342560,456.370758 352.058868,464.580383 
	C348.958649,475.725311 342.665649,484.284271 331.970795,489.218567 
	C329.023926,490.578217 326.929443,492.416290 327.122559,495.978516 
	C327.324768,499.708374 329.292511,502.170319 332.642792,503.571533 
	C336.794647,505.308075 341.112793,505.380707 345.349823,504.144623 
	C359.835846,499.918396 368.355316,489.939056 371.418610,475.500519 
	C372.649597,469.698334 372.781311,463.466827 367.067505,458.311707 
z"/>
<path fill="#000000" opacity="1.000000" stroke="none" 
	d="
M476.646484,608.008667 
	C468.933350,605.906250 465.073364,601.036133 464.406769,593.578186 
	C463.355499,581.816467 462.185944,570.062134 461.376251,558.283325 
	C460.838531,550.460632 465.941803,543.844604 473.929260,542.734558 
	C484.295532,541.293884 494.777557,540.682190 505.211578,539.733948 
	C518.296997,538.544800 531.411926,537.618713 544.463074,536.131226 
	C557.798096,534.611389 563.962402,538.877136 565.504028,552.185303 
	C566.747314,562.918823 567.621094,573.708252 568.244080,584.496765 
	C568.822021,594.504761 563.951477,600.467529 554.101807,601.489563 
	C536.399597,603.326416 518.660278,604.838318 500.915833,606.221375 
	C492.964874,606.841125 485.086884,608.434631 476.646484,608.008667 
M556.890869,573.299744 
	C556.237000,566.353455 555.454224,559.416138 554.973267,552.457886 
	C554.639221,547.624817 552.203918,546.333252 547.679077,546.770264 
	C533.950623,548.096252 520.195679,549.145996 506.455231,550.350586 
	C496.691437,551.206604 486.934143,552.137268 477.174347,553.039001 
	C473.630920,553.366333 471.492981,555.264221 471.805969,558.872070 
	C472.766937,569.949463 474.005127,581.002686 474.996857,592.077637 
	C475.411499,596.708191 477.786743,597.859741 482.100891,597.252014 
	C487.524689,596.487915 493.017914,596.218018 498.480499,595.727234 
	C516.355896,594.121338 534.226746,592.462402 552.109436,590.941833 
	C556.185425,590.595215 558.269836,588.900818 557.856323,584.632019 
	C557.520325,581.163391 557.287964,577.684753 556.890869,573.299744 
z"/>
</svg>